<svg width="30" height="30" viewBox="0 0 30 30" fill="none" xmlns="http://www.w3.org/2000/svg">
<path fill-rule="evenodd" clip-rule="evenodd" d="M7.66532 16.8369H22.3412L23.4066 26.8609L22.0978 27L21.1575 18.1531H8.84903L7.90878 27L6.59998 26.8609L7.66532 16.8369Z" fill="#002051"/>
<path fill-rule="evenodd" clip-rule="evenodd" d="M15.0489 13.6263C17.6198 13.6263 19.7039 11.5421 19.7039 8.97122C19.7039 6.40031 17.6198 4.31617 15.0489 4.31617C12.478 4.31617 10.3938 6.40031 10.3938 8.97122C10.3938 11.5421 12.478 13.6263 15.0489 13.6263ZM15.0489 14.9424C18.3467 14.9424 21.0201 12.269 21.0201 8.97122C21.0201 5.6734 18.3467 3 15.0489 3C11.7511 3 9.07765 5.6734 9.07765 8.97122C9.07765 12.269 11.7511 14.9424 15.0489 14.9424Z" fill="#002051"/>
</svg>
